<svg xmlns="http://www.w3.org/2000/svg" version="1.1" xmlns:xlink="http://www.w3.org/1999/xlink" xmlns:svgjs="http://svgjs.com/svgjs" width="500" height="500"><svg version="1.1" id="SvgjsSvg1000" xmlns="http://www.w3.org/2000/svg" xmlns:xlink="http://www.w3.org/1999/xlink" x="0px" y="0px" viewBox="0 0 500 500" style="enable-background:new 0 0 500 500;" xml:space="preserve">
<style type="text/css">
	.st0{fill:#4B9283;}
	.st1{fill:#FFFFFF;}
</style>
<rect class="st0" width="500" height="500"></rect>
<path class="st1" d="M289.7,411.1c-31-42.5-46.5-98.8-38.1-153.1c2.1-17.9,8-34.9,10.4-52.7c8.6-51.6-1.7-106.1-42-138
	c44.6,27.9,58,86.2,49.4,139.3c-2.2,17.8-7.6,35-10.1,52.7c-5.5,34.9-1.4,70.9,10.7,103.7c4,10.9,9,21.2,14.5,31.2
	c-1.5-19.8-0.9-29.5,15.5-44.3c-3.3,0.4-15.2,1.7-20.6,14.9c0.3-6.5,4-15.7,10.3-21.8c7.7-7.5,13.7-15.2,11.6-38
	c-19.1,7.6-24.7,21.9-29,32.4c-1.6-19.4,8-28.8,14.7-37c10.9-13.2,5.8-28.4,10-44.8c-25.8,16.6-32.1,37.6-32.1,37.6
	c1.3-34.3,25.2-28.5,37.9-86.1c4.8-21.5,1.4-47.6-6.1-68.2c1.8,27-13.1,40.2-13.1,40.2s23.4-71.1-29.5-112.5
	c-29.3-23-71.8-13.6-71.8-13.6c58.7,47.7,53.1,91.9,45.4,128.7c-5.7,27.6,13.8,39.7,15.4,70.8c-3.7-6.6-11.9-28.2-25-34.3
	c1.6,24.1-3.7,25.1-5.8,39.8c-4.8,33.7,26.8,39,34.2,64.3c-4-8.5-18.6-18.3-34.4-22.2c6.3,49.1,44.2,54.3,44.2,54.3
	c-12,4.8-24.3-4-30.4-8.5c3.7,14.7,21.4,20.7,30.8,28.1c12.8,10.1,15.7,18.2,24.2,30.9c16,25.2,30.6,39,36.6,44v-4.5
	C312,439,299.3,426.1,289.7,411.1z"></path>
</svg><style>@media (prefers-color-scheme: light) { :root { filter: none; } }
</style></svg>