<?xml version="1.0" encoding="utf-8"?>
<!-- Generator: Adobe Illustrator 28.2.0, SVG Export Plug-In . SVG Version: 6.00 Build 0)  -->
<svg version="1.1" id="Ebene_1" xmlns="http://www.w3.org/2000/svg" xmlns:xlink="http://www.w3.org/1999/xlink" x="0px" y="0px"
	 viewBox="0 0 141.73 113.68" style="enable-background:new 0 0 141.73 113.68;" xml:space="preserve">
<style type="text/css">
	.st0{fill:#FFFFFF;}
</style>
<g>
	<g>
		<path class="st0" d="M49.41,24.32c0.66-0.24,1.45-0.46,2.38-0.68c0.93-0.22,1.94-0.33,3.04-0.33c1.07,0,1.96,0.12,2.68,0.35
			c0.72,0.24,1.3,0.54,1.74,0.92c0.44,0.38,0.75,0.81,0.94,1.29c0.19,0.49,0.28,0.97,0.28,1.46c0,0.55-0.09,1.06-0.27,1.52
			c-0.18,0.46-0.42,0.87-0.72,1.22c-0.3,0.35-0.64,0.66-1.04,0.91c-0.39,0.25-0.81,0.45-1.25,0.59c1.4,0.27,2.43,0.76,3.11,1.48
			c0.67,0.72,1.01,1.6,1.01,2.64c0,0.8-0.19,1.53-0.57,2.18c-0.38,0.65-0.9,1.21-1.58,1.66c-0.68,0.46-1.48,0.8-2.41,1.05
			c-0.93,0.24-1.95,0.36-3.05,0.36c-0.8,0-1.56-0.04-2.28-0.12c-0.72-0.08-1.4-0.18-2.03-0.31V24.32z M54.97,31.34
			c0.49-0.02,0.94-0.11,1.37-0.27c0.42-0.16,0.79-0.39,1.09-0.68c0.31-0.29,0.55-0.64,0.73-1.06c0.18-0.42,0.27-0.89,0.27-1.42
			c0-1.11-0.36-1.98-1.07-2.59c-0.71-0.61-1.82-0.92-3.33-0.92c-0.52,0-1,0.03-1.46,0.08c-0.46,0.06-0.86,0.12-1.22,0.2v6.83
			c0.41-0.05,0.88-0.09,1.41-0.12c0.53-0.03,1.15-0.05,1.86-0.05H54.97z M54.09,32.42c-0.58,0-1.09,0.01-1.54,0.04
			c-0.45,0.02-0.85,0.07-1.21,0.13v6.78c0.46,0.14,0.98,0.26,1.57,0.34c0.59,0.09,1.16,0.13,1.71,0.13c0.67,0,1.29-0.08,1.85-0.24
			c0.56-0.16,1.04-0.39,1.45-0.69c0.41-0.31,0.73-0.69,0.95-1.15c0.23-0.46,0.34-1.01,0.34-1.64c0-0.69-0.14-1.27-0.42-1.74
			c-0.28-0.47-0.66-0.85-1.14-1.14c-0.48-0.29-1.02-0.5-1.64-0.62C55.39,32.48,54.75,32.42,54.09,32.42z"/>
		<path class="st0" d="M64.36,32.35c0-1.33,0.23-2.55,0.69-3.66s1.08-2.06,1.86-2.86c0.78-0.8,1.68-1.42,2.71-1.86
			c1.03-0.44,2.11-0.66,3.26-0.66c1.24,0,2.33,0.21,3.28,0.64c0.95,0.42,1.75,1.01,2.39,1.77c0.64,0.75,1.13,1.64,1.46,2.65
			c0.33,1.01,0.49,2.11,0.49,3.28c0,1.3-0.19,2.52-0.56,3.65c-0.38,1.13-0.93,2.11-1.65,2.94c-0.72,0.83-1.61,1.49-2.65,1.98
			c-1.04,0.49-2.22,0.73-3.54,0.73c-1.05,0-2.04-0.2-2.98-0.59c-0.93-0.39-1.75-0.96-2.46-1.71c-0.71-0.75-1.27-1.65-1.68-2.71
			C64.57,34.88,64.36,33.69,64.36,32.35z M66.46,31.6c0,1.33,0.17,2.51,0.51,3.53c0.34,1.02,0.79,1.88,1.35,2.58
			c0.57,0.7,1.23,1.23,1.99,1.59c0.76,0.36,1.57,0.54,2.41,0.54c1.8,0,3.21-0.62,4.2-1.86s1.5-3.1,1.5-5.58
			c0-1.21-0.15-2.3-0.45-3.28c-0.3-0.98-0.72-1.82-1.26-2.52c-0.54-0.7-1.19-1.24-1.95-1.61c-0.76-0.38-1.61-0.57-2.55-0.57
			c-0.75,0-1.48,0.14-2.18,0.42c-0.7,0.28-1.31,0.72-1.84,1.31s-0.95,1.33-1.26,2.24C66.61,29.29,66.46,30.36,66.46,31.6z"/>
		<path class="st0" d="M84.66,24.16c0.75-0.25,1.58-0.46,2.48-0.61c0.9-0.16,1.94-0.24,3.12-0.24c1.41,0,2.64,0.22,3.7,0.65
			c1.05,0.43,1.93,1.01,2.63,1.74c0.7,0.73,1.22,1.58,1.57,2.54c0.34,0.97,0.52,1.99,0.52,3.07c0,1.54-0.24,2.9-0.73,4.1
			c-0.49,1.19-1.17,2.2-2.05,3.03c-0.88,0.82-1.93,1.45-3.17,1.87c-1.23,0.42-2.59,0.64-4.09,0.64c-0.64,0-1.32-0.03-2.02-0.09
			c-0.71-0.06-1.36-0.16-1.95-0.28V24.16z M89.44,24.37c-0.61,0-1.15,0.02-1.6,0.06c-0.46,0.04-0.87,0.09-1.25,0.15v14.76
			c0.39,0.13,0.89,0.22,1.5,0.29c0.6,0.07,1.21,0.11,1.82,0.11c0.96,0,1.84-0.15,2.65-0.45c0.81-0.3,1.51-0.76,2.11-1.38
			c0.6-0.62,1.06-1.41,1.4-2.37c0.34-0.96,0.51-2.1,0.51-3.44c0-1.07-0.14-2.07-0.42-3.01c-0.28-0.94-0.71-1.76-1.3-2.46
			c-0.58-0.7-1.32-1.25-2.21-1.66C91.74,24.57,90.68,24.37,89.44,24.37z"/>
		<path class="st0" d="M102.53,23.54c0.66,1.46,1.45,3.01,2.38,4.65c0.93,1.64,1.91,3.22,2.94,4.74c0.94-1.41,1.81-2.88,2.61-4.4
			c0.8-1.52,1.5-3.1,2.1-4.73c0.22-0.11,0.44-0.18,0.66-0.22c0.22-0.04,0.46-0.06,0.73-0.06c0.2,0,0.37,0.02,0.49,0.05
			c-0.27,0.68-0.63,1.44-1.08,2.3c-0.46,0.86-0.95,1.74-1.5,2.65c-0.54,0.91-1.11,1.81-1.7,2.68c-0.59,0.88-1.15,1.67-1.68,2.38
			v6.73c-0.25,0.14-0.55,0.24-0.88,0.29c-0.34,0.06-0.69,0.08-1.05,0.08v-6.59c-1.16-1.63-2.24-3.27-3.23-4.92
			c-0.99-1.65-1.89-3.34-2.71-5.09c0.22-0.16,0.49-0.29,0.82-0.39C101.77,23.6,102.14,23.54,102.53,23.54z"/>
		<path class="st0" d="M47.34,65.41c0.52-1.32,1.07-2.73,1.65-4.23c0.58-1.5,1.17-2.99,1.75-4.47c0.59-1.48,1.16-2.92,1.72-4.31
			c0.56-1.39,1.06-2.64,1.5-3.76c0.27-0.13,0.56-0.22,0.87-0.28c0.31-0.06,0.63-0.09,0.94-0.09l6.24,16.88
			c-0.14,0.08-0.34,0.15-0.59,0.2c-0.25,0.05-0.55,0.08-0.89,0.08c-0.08,0-0.15,0-0.22,0c-0.07,0-0.15-0.01-0.22-0.02l-1.84-4.99
			H50.7c-0.55,1.68-1.04,3.28-1.46,4.8c-0.14,0.08-0.33,0.14-0.55,0.18c-0.23,0.04-0.46,0.06-0.69,0.06c-0.14,0-0.27,0-0.38-0.01
			C47.51,65.44,47.41,65.43,47.34,65.41z M54.45,50.01c-0.55,1.43-1.11,2.93-1.68,4.51c-0.57,1.58-1.13,3.17-1.68,4.77h6.76
			L54.45,50.01z"/>
		<path class="st0" d="M78.35,65.17c-0.09,0.08-0.24,0.14-0.42,0.18c-0.19,0.04-0.35,0.06-0.49,0.06l-10.93-15
			c0.02,1.22,0.04,2.43,0.06,3.63c0.02,1.19,0.05,2.39,0.07,3.58c0.02,1.19,0.05,2.4,0.09,3.61c0.04,1.22,0.09,2.47,0.15,3.76
			c-0.17,0.13-0.43,0.23-0.78,0.31c-0.35,0.08-0.67,0.12-0.99,0.12c0.03-1.37,0.06-2.7,0.09-3.99c0.03-1.29,0.06-2.61,0.09-3.96
			c0.03-1.34,0.06-2.73,0.09-4.17c0.03-1.44,0.07-2.97,0.12-4.6c0.27-0.13,0.57-0.23,0.91-0.31c0.34-0.08,0.67-0.12,1-0.12
			l9.87,13.66c-0.03-2.32-0.07-4.61-0.11-6.85c-0.04-2.24-0.1-4.36-0.18-6.36c0.27-0.16,0.56-0.27,0.88-0.34
			c0.32-0.07,0.62-0.11,0.88-0.11c-0.08,2.51-0.15,5.2-0.21,8.05C78.5,59.18,78.42,62.13,78.35,65.17z"/>
		<path class="st0" d="M83.6,48.88c0.75-0.25,1.58-0.46,2.48-0.61c0.9-0.16,1.94-0.24,3.12-0.24c1.41,0,2.64,0.22,3.7,0.65
			c1.05,0.43,1.93,1.01,2.63,1.74c0.7,0.73,1.22,1.58,1.57,2.54c0.34,0.97,0.52,1.99,0.52,3.07c0,1.54-0.24,2.9-0.73,4.1
			s-1.17,2.2-2.05,3.02c-0.88,0.82-1.93,1.45-3.17,1.87c-1.23,0.42-2.59,0.64-4.09,0.64c-0.64,0-1.32-0.03-2.02-0.09
			c-0.71-0.06-1.36-0.16-1.95-0.28V48.88z M88.38,49.09c-0.61,0-1.15,0.02-1.6,0.06c-0.46,0.04-0.87,0.09-1.25,0.15v14.76
			c0.39,0.13,0.89,0.22,1.5,0.29c0.6,0.07,1.21,0.11,1.82,0.11c0.96,0,1.84-0.15,2.65-0.45c0.81-0.3,1.51-0.76,2.11-1.38
			c0.6-0.62,1.06-1.41,1.4-2.37c0.34-0.96,0.51-2.1,0.51-3.44c0-1.07-0.14-2.07-0.42-3.01c-0.28-0.94-0.71-1.76-1.3-2.46
			c-0.58-0.7-1.32-1.25-2.21-1.66C90.68,49.3,89.62,49.09,88.38,49.09z"/>
		<path class="st0" d="M62.36,89.9c-0.09,0.08-0.24,0.14-0.42,0.18c-0.19,0.04-0.35,0.06-0.49,0.06l-10.93-15
			c0.02,1.22,0.04,2.43,0.06,3.63c0.02,1.19,0.05,2.39,0.07,3.58s0.05,2.4,0.09,3.61c0.04,1.22,0.09,2.47,0.15,3.76
			c-0.17,0.13-0.43,0.23-0.78,0.31c-0.35,0.08-0.67,0.12-0.99,0.12c0.03-1.37,0.06-2.7,0.09-3.99c0.03-1.29,0.06-2.61,0.09-3.96
			c0.03-1.34,0.06-2.73,0.09-4.17c0.03-1.44,0.07-2.97,0.12-4.6c0.27-0.13,0.57-0.23,0.91-0.31c0.34-0.08,0.67-0.12,1-0.12
			l9.87,13.66c-0.03-2.32-0.07-4.61-0.11-6.85c-0.04-2.24-0.1-4.36-0.18-6.36c0.27-0.16,0.56-0.27,0.88-0.34
			c0.32-0.07,0.62-0.11,0.88-0.11c-0.08,2.51-0.15,5.2-0.21,8.05C62.51,83.9,62.44,86.85,62.36,89.9z"/>
		<path class="st0" d="M65.54,90.13c0.52-1.32,1.07-2.73,1.65-4.23c0.58-1.5,1.17-2.99,1.75-4.47c0.59-1.48,1.16-2.92,1.72-4.31
			c0.56-1.39,1.06-2.64,1.5-3.76c0.27-0.13,0.56-0.22,0.87-0.28c0.31-0.06,0.63-0.09,0.94-0.09l6.24,16.88
			c-0.14,0.08-0.34,0.15-0.59,0.2c-0.25,0.05-0.55,0.08-0.89,0.08c-0.08,0-0.15,0-0.22,0c-0.07,0-0.15-0.01-0.22-0.02l-1.84-4.99
			H68.9c-0.55,1.68-1.04,3.28-1.46,4.8c-0.14,0.08-0.33,0.14-0.55,0.18c-0.23,0.04-0.46,0.06-0.69,0.06c-0.14,0-0.27,0-0.38-0.01
			C65.71,90.16,65.62,90.15,65.54,90.13z M72.65,74.74c-0.55,1.43-1.11,2.93-1.68,4.51c-0.57,1.58-1.13,3.17-1.68,4.77h6.76
			L72.65,74.74z"/>
		<path class="st0" d="M93.77,73.04c-0.03,0.31-0.11,0.61-0.25,0.9c-0.13,0.28-0.28,0.49-0.44,0.61c-0.71-0.06-1.54-0.14-2.5-0.25
			c-0.96-0.1-1.88-0.19-2.76-0.27v15.73c-0.25,0.14-0.55,0.24-0.88,0.29c-0.34,0.05-0.69,0.08-1.05,0.08V74.03
			c-0.47,0.05-0.98,0.1-1.53,0.15c-0.55,0.06-1.09,0.11-1.63,0.15c-0.53,0.05-1.04,0.09-1.52,0.13c-0.48,0.04-0.88,0.07-1.21,0.08
			c0.03-0.34,0.11-0.65,0.22-0.91c0.12-0.26,0.26-0.46,0.44-0.6H93.77z"/>
		<path class="st0" d="M98.69,83.52c0,1,0.12,1.86,0.37,2.56c0.24,0.7,0.59,1.27,1.04,1.71c0.45,0.44,0.98,0.76,1.59,0.95
			c0.61,0.2,1.3,0.29,2.05,0.29c0.99,0,1.79-0.17,2.4-0.51c0.61-0.34,1.1-0.82,1.45-1.45c0.35-0.63,0.59-1.39,0.72-2.3
			c0.13-0.9,0.19-1.91,0.19-3.03c0-1.21-0.02-2.52-0.06-3.93c-0.04-1.41-0.09-2.9-0.15-4.47c0.27-0.13,0.55-0.22,0.86-0.27
			c0.31-0.05,0.61-0.08,0.91-0.08c-0.03,0.99-0.05,1.93-0.05,2.81c0,0.89-0.01,1.76-0.02,2.63c-0.02,0.86-0.04,1.72-0.07,2.58
			c-0.03,0.86-0.08,1.74-0.14,2.65c-0.09,1.27-0.34,2.34-0.73,3.19c-0.39,0.85-0.89,1.55-1.48,2.07s-1.29,0.9-2.08,1.12
			c-0.79,0.22-1.64,0.33-2.53,0.33c-0.83,0-1.62-0.12-2.37-0.35c-0.75-0.24-1.4-0.6-1.97-1.1c-0.56-0.49-1.01-1.13-1.34-1.91
			c-0.33-0.78-0.49-1.71-0.49-2.79V73.42c0.53-0.28,1.18-0.42,1.93-0.42V83.52z"/>
		<path class="st0" d="M114.8,73.68c0.69-0.25,1.5-0.47,2.44-0.65c0.93-0.18,1.88-0.27,2.84-0.27c1.07,0,1.97,0.12,2.72,0.36
			c0.75,0.24,1.35,0.57,1.83,0.99c0.47,0.42,0.81,0.9,1.02,1.45c0.21,0.55,0.32,1.13,0.32,1.74c0,0.75-0.14,1.42-0.42,1.99
			c-0.28,0.57-0.65,1.07-1.09,1.48c-0.45,0.42-0.96,0.76-1.54,1.04c-0.58,0.27-1.16,0.48-1.74,0.62c0.27,0.17,0.52,0.39,0.75,0.65
			c0.24,0.26,0.49,0.56,0.75,0.91l2.33,3.01c0.49,0.63,0.93,1.17,1.34,1.62c0.41,0.46,0.75,0.8,1.04,1.04v0.14
			c-0.22,0.11-0.54,0.19-0.97,0.25c-0.42,0.05-0.82,0.08-1.2,0.08c-0.16-0.06-0.36-0.23-0.62-0.51c-0.26-0.27-0.62-0.74-1.07-1.4
			l-2.78-3.93c-0.2-0.28-0.4-0.53-0.58-0.73c-0.18-0.2-0.38-0.37-0.59-0.51c-0.21-0.13-0.46-0.23-0.73-0.28
			c-0.27-0.06-0.61-0.08-1-0.08h-1.11v7.06c-0.25,0.14-0.55,0.24-0.88,0.29c-0.34,0.05-0.69,0.08-1.05,0.08V73.68z M119.22,73.84
			c-0.38,0-0.79,0.02-1.22,0.07c-0.44,0.05-0.86,0.12-1.27,0.21v7.3c0.27,0.08,0.58,0.14,0.93,0.19s0.76,0.07,1.21,0.07
			c1.54,0,2.76-0.31,3.65-0.94c0.9-0.63,1.34-1.59,1.34-2.9c0-0.57-0.09-1.1-0.28-1.59c-0.19-0.49-0.47-0.92-0.86-1.27
			c-0.39-0.35-0.87-0.63-1.45-0.84C120.69,73.94,120.01,73.84,119.22,73.84z"/>
		<path class="st0" d="M130.76,90.13V73.6c0.53-0.3,1.18-0.46,1.93-0.49c0.46-0.02,1.06-0.03,1.82-0.04
			c0.76-0.01,1.57-0.02,2.43-0.04c0.85-0.01,1.7-0.03,2.52-0.03c0.82-0.01,1.52-0.01,2.08-0.01c-0.03,0.33-0.12,0.63-0.27,0.89
			c-0.15,0.27-0.32,0.44-0.51,0.52c-0.53,0-1.14-0.01-1.81-0.04c-0.67-0.02-1.37-0.05-2.1-0.07c-0.72-0.02-1.45-0.05-2.17-0.08
			c-0.72-0.03-1.39-0.06-2-0.09v6.92l7.46-0.14c-0.03,0.28-0.11,0.54-0.24,0.78c-0.13,0.24-0.27,0.37-0.42,0.4
			c-1.15-0.02-2.28-0.03-3.41-0.04c-1.13-0.01-2.26-0.03-3.39-0.06v7.11c1.38-0.03,2.82-0.08,4.31-0.15s3.07-0.16,4.73-0.27
			c-0.05,0.36-0.14,0.67-0.28,0.93c-0.14,0.26-0.3,0.44-0.47,0.53H130.76z"/>
	</g>
	<path class="st0" d="M30.65,102.87c-8.87-12.13-13.28-28.22-10.88-43.76c0.61-5.13,2.29-9.96,2.98-15.06
		c2.47-14.75-0.47-30.31-12.01-39.43c12.75,7.97,16.56,24.64,14.11,39.8c-0.62,5.1-2.16,10.01-2.89,15.07
		c-1.58,9.97-0.4,20.26,3.05,29.62c1.15,3.1,2.56,6.06,4.14,8.93c-0.43-5.66-0.24-8.43,4.43-12.66c-0.95,0.11-4.35,0.48-5.88,4.26
		c0.1-1.84,1.14-4.5,2.94-6.24c2.21-2.14,3.91-4.36,3.32-10.85c-5.47,2.16-7.06,6.26-8.29,9.26c-0.47-5.54,2.27-8.23,4.21-10.58
		c3.12-3.78,1.66-8.1,2.87-12.79c-7.38,4.73-9.17,10.75-9.17,10.75c0.38-9.81,7.19-8.14,10.84-24.61c1.36-6.14,0.41-13.61-1.74-19.5
		c0.51,7.72-3.74,11.5-3.74,11.5s6.68-20.31-8.43-32.15C12.13-2.14,0,0.54,0,0.54C16.77,14.18,15.17,26.8,12.97,37.33
		c-1.64,7.87,3.95,11.35,4.4,20.23c-1.05-1.9-3.39-8.05-7.15-9.8c0.47,6.87-1.05,7.16-1.66,11.36c-1.38,9.62,7.66,11.16,9.76,18.38
		c-1.14-2.42-5.32-5.24-9.82-6.35c1.79,14.02,12.63,15.5,12.63,15.5c-3.42,1.38-6.96-1.16-8.7-2.42c1.05,4.21,6.11,5.92,8.81,8.04
		c3.66,2.88,4.48,5.2,6.91,8.82c4.58,7.21,8.76,11.14,10.46,12.59v-1.27C37.04,110.85,33.4,107.16,30.65,102.87z"/>
</g>
</svg>
